<?xml version="1.0" encoding="UTF-8"?>
<svg width="24px" height="21px" viewBox="0 0 24 21" version="1.1" xmlns="http://www.w3.org/2000/svg" xmlns:xlink="http://www.w3.org/1999/xlink">
    <!-- Generator: Sketch 46.2 (44496) - http://www.bohemiancoding.com/sketch -->
    <title>Page 1</title>
    <desc>Created with Sketch.</desc>
    <defs></defs>
    <g id="Page-1" stroke="none" stroke-width="1" fill="none" fill-rule="evenodd">
        <g id="02.Noi_Bo_Post_Tin" transform="translate(-258.000000, -1611.000000)" fill="#0081E4">
            <g id="Group" transform="translate(258.000000, 1611.000000)">
                <path d="M1.34117647,20.53125 C1.48235354,20.8125014 1.70980232,20.953125 2.02352941,20.953125 C4.09412668,20.953125 6.11763802,20.3750058 8.09411765,19.21875 C9.60000904,19.4687511 10.8862705,19.59375 11.9529412,19.59375 C15.2470739,19.59375 18.0627336,18.6328221 20.3999985,16.710936 C22.7372664,14.789052 23.9058824,12.484389 23.9058824,9.796875 C23.9058824,7.109361 22.7372664,4.81251 20.3999985,2.90625 C18.0627336,0.99999 15.2470739,0.046875 11.9529412,0.046875 C8.65880847,0.046875 5.8431488,0.99999 3.50588386,2.90625 C1.16861591,4.81251 0,7.109361 0,9.796875 C0,12.453138 1.12940062,14.734365 3.38823529,16.640625 C2.886272,17.73438 2.24314127,18.7656201 1.45882353,19.734375 C1.23921468,19.9843761 1.1999994,20.2499985 1.34117647,20.53125 Z M1.50588235,9.796875 C1.50588235,7.515615 2.52548006,5.570322 4.56470588,3.960936 C6.60393261,2.351553 9.06665261,1.546875 11.9529412,1.546875 C14.8392297,1.546875 17.3019497,2.351553 19.3411765,3.960936 C21.3804032,5.570322 22.4,7.515615 22.4,9.796875 C22.4,12.078135 21.3804032,14.031243 19.3411765,15.65625 C17.3019497,17.281257 14.8392297,18.09375 11.9529412,18.09375 C10.6666616,18.09375 9.38039718,17.968752 8.09411765,17.71875 C7.90588235,17.687499 7.71764706,17.71875 7.52941176,17.8125 C6.18038513,18.6250041 4.8784384,19.140624 3.62352941,19.359375 C4.18823831,18.4843707 4.64313525,17.578131 4.98823529,16.640625 C5.14510005,16.296873 5.06666767,16.015626 4.75294118,15.796875 C2.58822445,14.140617 1.50588235,12.140637 1.50588235,9.796875 Z" id="Page-1"></path>
            </g>
        </g>
    </g>
</svg>