<?xml version="1.0" encoding="UTF-8"?>
<svg width="24px" height="19px" viewBox="0 0 24 19" version="1.1" xmlns="http://www.w3.org/2000/svg" xmlns:xlink="http://www.w3.org/1999/xlink">
    <!-- Generator: Sketch 46.2 (44496) - http://www.bohemiancoding.com/sketch -->
    <title>Page 1</title>
    <desc>Created with Sketch.</desc>
    <defs></defs>
    <g id="Page-1" stroke="none" stroke-width="1" fill="none" fill-rule="evenodd">
        <g id="04.Noi_Bo_Bieu_Mau" transform="translate(-1016.000000, -192.000000)" fill="#0081E4">
            <g id="Group-9" transform="translate(995.000000, 181.000000)">
                <g id="Group-8" transform="translate(21.000000, 11.000000)">
                    <path d="M15.960936,9.78125 L12.75,12.992186 L12.75,5.75 C12.75,5.546873 12.675783,5.371094 12.527343,5.222657 C12.378906,5.074217 12.203127,5 12,5 C11.796873,5 11.621094,5.074217 11.472657,5.222657 C11.324217,5.371094 11.25,5.546873 11.25,5.75 L11.25,12.96875 L8.0625,9.78125 C7.906248,9.640625 7.722657,9.570314 7.511718,9.570314 C7.300779,9.570314 7.125,9.640625 6.984375,9.78125 C6.84375,9.937502 6.773436,10.117187 6.773436,10.320314 C6.773436,10.523438 6.84375,10.703123 6.984375,10.859375 L11.4375,15.289064 C11.515626,15.367187 11.605467,15.421874 11.707032,15.453125 C11.808594,15.484376 11.90625,15.5 12,15.5 C12.109377,15.5 12.214842,15.484376 12.316407,15.453125 C12.417969,15.421874 12.507813,15.367187 12.585936,15.289064 L17.039064,10.859375 C17.179689,10.703123 17.25,10.523438 17.25,10.320314 C17.25,10.117187 17.179689,9.937502 17.039064,9.78125 C16.898436,9.640625 16.722657,9.570314 16.511718,9.570314 C16.300779,9.570314 16.117188,9.640625 15.960936,9.78125 Z M17.296875,4.273436 C17.031249,3.710936 16.687503,3.19922 16.265625,2.738282 C15.843747,2.277341 15.375003,1.882814 14.859375,1.554686 C14.343747,1.226561 13.781253,0.96875 13.171875,0.78125 C12.562497,0.59375 11.921877,0.5 11.25,0.5 C10.359372,0.5 9.519534,0.660155 8.730468,0.980468 C7.941402,1.300784 7.246098,1.746092 6.644532,2.316407 C6.042966,2.886722 5.554689,3.550778 5.179686,4.308593 C4.804686,5.066411 4.585938,5.882807 4.523436,6.757814 C3.867183,6.945314 3.261723,7.222655 2.7070314,7.589843 C2.152341,7.957034 1.6757832,8.390624 1.2773436,8.890625 C0.8789043,9.390626 0.5664075,9.949217 0.3398436,10.566407 C0.11328012,11.183597 0,11.828123 0,12.5 C0,13.296878 0.15624843,14.046872 0.46875,14.75 C0.7812516,15.453128 1.2070287,16.0742162 1.7460936,16.6132814 C2.2851588,17.1523463 2.917965,17.585936 3.644532,17.9140625 C4.371096,18.2421891 5.156247,18.4296873 6,18.4765625 L18.75,18.5 C19.390629,18.2187486 20.02734,17.8242212 20.660157,17.3164064 C21.292971,16.8085913 21.855465,16.2343781 22.347657,15.59375 C22.839846,14.953121 23.238279,14.269535 23.542968,13.542968 C23.847657,12.816404 24,12.093755 24,11.375 C24,10.42187 23.828127,9.527348 23.484375,8.691407 C23.140623,7.855466 22.664067,7.121096 22.054686,6.488282 C21.445308,5.855465 20.73438,5.339846 19.921875,4.941407 C19.10937,4.542968 18.234381,4.320314 17.296875,4.273436 Z M18.75,17 L6,17 C6,17 5.765628,16.9531256 5.296875,16.859375 C4.828122,16.7656244 4.308597,16.5664079 3.738282,16.2617186 C3.167967,15.9570296 2.6523462,15.5078156 2.1914064,14.914064 C1.7304663,14.32031 1.5,13.515629 1.5,12.5 C1.5,11.937497 1.6210926,11.390627 1.8632814,10.859375 C2.1054699,10.328123 2.4296856,9.85547 2.8359375,9.441407 C3.24219,9.027341 3.71484,8.691407 4.253907,8.433593 C4.792971,8.175779 5.374998,8.031251 6,8 C6,7.218746 6.121092,6.468755 6.363282,5.75 C6.605469,5.031245 6.953124,4.394534 7.40625,3.839843 C7.859376,3.285152 8.410152,2.839844 9.058593,2.503907 C9.707034,2.167967 10.437495,2 11.25,2 C12.531255,2 13.593747,2.351558 14.4375,3.054686 C15.281253,3.757817 15.851562,4.656245 16.148436,5.75 C17.085942,5.718749 17.937495,5.859374 18.703125,6.171875 C19.468755,6.484376 20.128902,6.89453 20.683593,7.402343 C21.238284,7.910159 21.671874,8.484371 21.984375,9.125 C22.296876,9.765629 22.468749,10.390622 22.5,11 C22.531251,11.531252 22.445313,12.08984 22.242186,12.675782 C22.039062,13.261721 21.761721,13.828121 21.410157,14.375 C21.058593,14.921879 20.652345,15.42578 20.191407,15.8867186 C19.730466,16.3476587 19.250001,16.7187485 18.75,17 Z" id="Page-1"></path>
                </g>
            </g>
        </g>
    </g>
</svg>