<?xml version="1.0" encoding="UTF-8"?>
<svg width="70px" height="42px" viewBox="0 0 70 42" version="1.1" xmlns="http://www.w3.org/2000/svg" xmlns:xlink="http://www.w3.org/1999/xlink">
    <!-- Generator: Sketch 46.2 (44496) - http://www.bohemiancoding.com/sketch -->
    <title>eye</title>
    <desc>Created with Sketch.</desc>
    <defs></defs>
    <g id="Page-1" stroke="none" stroke-width="1" fill="none" fill-rule="evenodd">
        <g id="01.Trang_Chu" transform="translate(-140.000000, -1390.000000)" fill-rule="nonzero" fill="#0293DE">
            <g id="eye" transform="translate(140.000000, 1390.000000)">
                <path d="M69.7714286,20.2520548 C62.4857143,7.8390411 49.2571429,0.0575342466 35,0.0575342466 C20.7428571,0.0575342466 7.5,7.8390411 0.228571429,20.2520548 C-0.0714285714,20.6979452 -0.0714285714,21.3020548 0.228571429,21.7479452 C7.51428571,34.1609589 20.7428571,41.9424658 35,41.9424658 C49.2571429,41.9424658 62.5,34.1609589 69.7714286,21.7479452 C70.0714286,21.3020548 70.0714286,20.6979452 69.7714286,20.2520548 Z M35,38.9506849 C22.0714286,38.9506849 10.0285714,32.0753425 3.34285714,21 C10.0285714,9.92465753 22.0714286,3.04931507 35,3.04931507 C47.9285714,3.04931507 59.9714286,9.92465753 66.6571429,21 C59.9714286,32.0753425 47.9285714,38.9506849 35,38.9506849 Z" id="Shape"></path>
                <path d="M35,7.5369863 C27.5714286,7.5369863 21.6285714,13.5205479 21.6285714,21 C21.6285714,28.4794521 27.5714286,34.4630137 35,34.4630137 C42.4285714,34.4630137 48.3714286,28.4794521 48.3714286,21 C48.3714286,13.5205479 42.4285714,7.5369863 35,7.5369863 Z M35,31.4712329 C29.2,31.4712329 24.6,26.8253425 24.6,21 C24.6,15.1746575 29.2142857,10.5287671 35,10.5287671 C40.7857143,10.5287671 45.4,15.1746575 45.4,21 C45.4,26.8253425 40.8,31.4712329 35,31.4712329 Z" id="Shape"></path>
                <path d="M35,15.0164384 L35,18.0082192 C36.6285714,18.0082192 37.9714286,19.360274 37.9714286,21 C37.9714286,22.639726 36.6285714,23.9917808 35,23.9917808 C33.3714286,23.9917808 32.0285714,22.639726 32.0285714,21 L29.0571429,21 C29.0571429,24.2938356 31.7285714,26.9835616 35,26.9835616 C38.2714286,26.9835616 40.9428571,24.2938356 40.9428571,21 C40.9428571,17.7061644 38.2714286,15.0164384 35,15.0164384 L35,15.0164384 Z" id="Shape"></path>
            </g>
        </g>
    </g>
</svg>