<?xml version="1.0" encoding="UTF-8"?>
<svg width="66px" height="65px" viewBox="0 0 66 65" version="1.1" xmlns="http://www.w3.org/2000/svg" xmlns:xlink="http://www.w3.org/1999/xlink">
    <!-- Generator: Sketch 46.2 (44496) - http://www.bohemiancoding.com/sketch -->
    <title>package</title>
    <desc>Created with Sketch.</desc>
    <defs></defs>
    <g id="Page-1" stroke="none" stroke-width="1" fill="none" fill-rule="evenodd">
        <g id="01.Trang_Chu" transform="translate(-740.000000, -1370.000000)" fill-rule="nonzero" fill="#0293DE">
            <g id="package" transform="translate(740.000000, 1370.000000)">
                <path d="M65.7652617,15.44361 C65.5239492,15.09742 65.1305273,14.8915 64.7109375,14.8915 L43.3987383,14.8915 C42.8836289,14.8915 42.4180195,15.20077 42.2144766,15.67813 L37.666793,26.34593 L28.3329492,26.34593 L23.7852656,15.67813 C23.5818516,15.20077 23.1162422,14.8915 22.6010039,14.8915 L1.2890625,14.8915 C0.869472656,14.8915 0.476050781,15.09742 0.234738281,15.44361 C-0.006703125,15.78967 -0.066,16.23258 0.0759257813,16.6309 L4.03566797,27.75084 L4.03566797,63.64241 C4.03566797,64.36027 4.61291016,64.94241 5.32473047,64.94241 L38.5157695,64.94241 L60.6320859,64.94241 C61.3439063,64.94241 61.9211484,64.36027 61.9211484,63.64241 L61.9211484,27.87213 L65.9240742,16.6309 C66.066,16.23271 66.0067031,15.78967 65.7652617,15.44361 Z M3.12172266,17.4915 L21.7522852,17.4915 L25.526918,26.3458 L6.27451172,26.3458 L3.12172266,17.4915 Z M59.3431523,62.34241 L59.3431523,62.34241 L39.804832,62.34241 L39.804832,40.04507 C39.804832,39.32721 39.2275898,38.74507 38.5157695,38.74507 C37.8039492,38.74507 37.226707,39.32721 37.226707,40.04507 L37.226707,62.34241 L6.61379297,62.34241 L6.61379297,28.94593 L59.3431523,28.94593 L59.3431523,62.34241 Z M59.7254883,26.34593 L40.473082,26.34593 L44.2477148,17.49163 L62.8782773,17.49163 L59.7254883,26.34593 Z" id="Shape"></path>
                <path d="M33.1219453,0.05772 C32.410125,0.05772 31.8328828,0.63986 31.8328828,1.35772 L31.8328828,7.87072 C31.8328828,8.58871 32.410125,9.17072 33.1219453,9.17072 C33.8337656,9.17072 34.4110078,8.58858 34.4110078,7.87072 L34.4110078,1.35772 C34.4110078,0.63986 33.8337656,0.05772 33.1219453,0.05772 Z" id="Shape"></path>
                <path d="M44.5635352,5.06519 C44.0600273,4.55767 43.2440508,4.55767 42.7404141,5.06519 L38.1737812,9.67057 C37.6704023,10.17822 37.6704023,11.00138 38.1737812,11.50916 C38.4256641,11.76305 38.7554063,11.88993 39.0854062,11.88993 C39.4154063,11.88993 39.7451484,11.76292 39.9969023,11.50916 L44.5635352,6.90378 C45.0669141,6.39613 45.0669141,5.57297 44.5635352,5.06519 Z" id="Shape"></path>
                <path d="M27.8260898,9.6707 L23.259457,5.06532 C22.7559492,4.5578 21.9399727,4.5578 21.4363359,5.06532 C20.932957,5.57297 20.932957,6.39613 21.4363359,6.90391 L26.0030977,11.50929 C26.2548516,11.76305 26.5847227,11.89006 26.9145938,11.89006 C27.2444648,11.89006 27.5743359,11.76305 27.8260898,11.50929 C28.3294688,11.00164 28.3294688,10.17848 27.8260898,9.6707 Z" id="Shape"></path>
                <ellipse id="Oval" cx="38.5158984" cy="33.88333" rx="1.2890625" ry="1.3"></ellipse>
            </g>
        </g>
    </g>
</svg>