<?xml version="1.0" encoding="UTF-8"?>
<svg width="70px" height="70px" viewBox="0 0 70 70" version="1.1" xmlns="http://www.w3.org/2000/svg" xmlns:xlink="http://www.w3.org/1999/xlink">
    <!-- Generator: Sketch 46.2 (44496) - http://www.bohemiancoding.com/sketch -->
    <title>target-2</title>
    <desc>Created with Sketch.</desc>
    <defs></defs>
    <g id="Page-1" stroke="none" stroke-width="1" fill="none" fill-rule="evenodd">
        <g id="01.Trang_Chu" transform="translate(-140.000000, -1651.000000)" fill-rule="nonzero" fill="#0293DE">
            <g id="target-2" transform="translate(140.000000, 1651.000000)">
                <path d="M61.4682558,16.6492712 C61.516791,16.65474 61.5651895,16.6573376 61.6134513,16.6573376 C61.9592133,16.6573376 62.2936276,16.5203446 62.5410888,16.2730188 L69.6157433,9.19846223 C69.9755873,8.83847948 70.0949429,8.30281203 69.9215834,7.82401993 C69.7482239,7.34522783 69.3135946,7.00999133 68.806641,6.96391682 L63.5168513,6.48307393 L63.0357376,1.19325524 C62.9898001,0.686298901 62.6544287,0.25166724 62.175776,0.0784434853 C61.6969865,-0.0949169886 61.161322,0.0243025171 60.8012045,0.384285268 L53.72655,7.45897855 C53.4447724,7.74075768 53.3061395,8.13560393 53.3502996,8.53181738 L53.9764721,14.1678101 L52.6516662,15.4926232 C47.7587714,11.0168331 41.3411878,8.18304564 34.2791114,7.8691374 L34.2791114,5.37769583 C34.2791114,4.65308186 33.6916304,4.06559767 32.9670205,4.06559767 C32.2424105,4.06559767 31.6549295,4.65308186 31.6549295,5.37769583 L31.6549295,7.86872724 C16.5987642,8.53810649 4.47262102,20.6643162 3.80310873,35.7207007 L1.31209097,35.7207007 C0.587480972,35.7207007 0,36.3081849 0,37.0327988 C0,37.7574128 0.587480972,38.344897 1.31209097,38.344897 L3.80310873,38.344897 C4.47262102,53.4012815 16.5987642,65.5273545 31.6549295,66.1968704 L31.6549295,68.6879018 C31.6549295,69.4125158 32.2424105,70 32.9670205,70 C33.6916304,70 34.2791114,69.4125158 34.2791114,68.6879018 L34.2791114,66.1968704 C49.3352767,65.5274912 61.4614199,53.4012815 62.1309322,38.344897 L64.6219499,38.344897 C65.3465599,38.344897 65.9340409,37.7574128 65.9340409,37.0327988 C65.9340409,36.3081849 65.3465599,35.7207007 64.6219499,35.7207007 L62.1309322,35.7207007 C61.8170257,28.6585856 58.9832537,22.2409668 54.5076249,17.3477717 L55.8324307,16.0229586 L61.4682558,16.6492712 Z M60.6761067,4.22077443 L61.0024546,7.80966437 C61.0598766,8.44048868 61.5594473,8.94019888 62.1902682,8.99762112 L65.7791384,9.32383412 L61.1312438,13.9716175 L56.5385836,13.4613799 L56.0283488,8.86869452 L60.6761067,4.22077443 Z M59.5049729,35.7207007 L57.6563971,35.7207007 C56.9317871,35.7207007 56.3443061,36.3081849 56.3443061,37.0327988 C56.3443061,37.7574128 56.9317871,38.344897 57.6563971,38.344897 L59.5049729,38.344897 C58.8398356,51.9542411 47.8883809,62.9057558 34.2792481,63.57076 L34.2792481,61.7223108 C34.2792481,60.9976968 33.6917672,60.4102126 32.9671572,60.4102126 C32.2425472,60.4102126 31.6550662,60.9976968 31.6550662,61.7223108 L31.6550662,63.57076 C18.0457967,62.9058925 7.09434202,51.9541044 6.42920473,38.3450337 L8.27778053,38.3450337 C9.00239053,38.3450337 9.5898715,37.7575495 9.5898715,37.0329356 C9.5898715,36.3083216 9.00239053,35.7208374 8.27778053,35.7208374 L6.42920473,35.7208374 C7.09434202,22.1117667 18.0457967,11.1599786 31.6549295,10.4949744 L31.6549295,12.3434236 C31.6549295,13.0680375 32.2424105,13.6555217 32.9670205,13.6555217 C33.6916304,13.6555217 34.2791114,13.0680375 34.2791114,12.3434236 L34.2791114,10.4949744 C40.6182184,10.804781 46.3805085,13.346262 50.7954342,17.3487287 L46.8472667,21.2969178 C43.1445096,18.0267213 38.2838805,16.0388181 32.9668837,16.0388181 C21.3907605,16.0388181 11.9728814,25.4566122 11.9728814,37.0329356 C11.9728814,48.6092589 21.3907605,58.027053 32.9668837,58.027053 C44.5430069,58.027053 53.9608861,48.6092589 53.9608861,37.0329356 C53.9608861,31.7160464 51.9729938,26.8553906 48.7030886,23.1523398 L52.6512561,19.2041507 C56.6538376,23.6192372 59.1951679,29.3816956 59.5049729,35.7207007 Z M32.0392462,37.9607149 C32.2955941,38.2169274 32.6312389,38.3450337 32.9670205,38.3450337 C33.302802,38.3450337 33.6387202,38.2169274 33.8947947,37.9607149 L41.020582,30.8348885 C42.3451144,32.5520868 43.1358964,34.7014559 43.1358964,37.0329356 C43.1358964,42.6402172 38.5741346,47.2020039 32.9668837,47.2020039 C27.3596328,47.2020039 22.7978711,42.6402172 22.7978711,37.0329356 C22.7978711,31.4256539 27.3596328,26.8638672 32.9668837,26.8638672 C35.2983506,26.8638672 37.4475712,27.6546534 39.1648969,28.9791931 L32.0391095,36.1050195 C31.5269606,36.6175814 31.5269606,37.4482897 32.0392462,37.9607149 Z M32.9671572,24.2398076 C25.9128738,24.2398076 20.1739626,29.9788869 20.1739626,37.0330723 C20.1739626,44.0872576 25.9128738,49.826337 32.9671572,49.826337 C40.0214406,49.826337 45.7603517,44.0872576 45.7603517,37.0330723 C45.7603517,33.9776623 44.6823235,31.1699882 42.8884352,28.9674352 L46.8453527,25.0104961 C49.6422105,28.2347548 51.3369776,32.4395666 51.3369776,37.0329356 C51.3369776,47.1620818 43.0963846,55.40272 32.9672939,55.40272 C22.8382032,55.40272 14.5976102,47.1620818 14.5976102,37.0329356 C14.5976102,26.9037893 22.8382032,18.6630144 32.9672939,18.6630144 C37.560501,18.6630144 41.7655632,20.3577908 44.9898042,23.154664 L41.0328867,27.1117398 C38.8302091,25.3178418 36.0226871,24.2398076 32.9671572,24.2398076 Z" id="Shape"></path>
            </g>
        </g>
    </g>
</svg>