<?xml version="1.0" encoding="UTF-8"?>
<svg width="70px" height="59px" viewBox="0 0 70 59" version="1.1" xmlns="http://www.w3.org/2000/svg" xmlns:xlink="http://www.w3.org/1999/xlink">
    <!-- Generator: Sketch 46.2 (44496) - http://www.bohemiancoding.com/sketch -->
    <title>mission</title>
    <desc>Created with Sketch.</desc>
    <defs></defs>
    <g id="Page-1" stroke="none" stroke-width="1" fill="none" fill-rule="evenodd">
        <g id="01.Trang_Chu" transform="translate(-739.000000, -1657.000000)" fill-rule="nonzero" fill="#0293DE">
            <g id="mission" transform="translate(739.000000, 1657.000000)">
                <path d="M43.9929139,1.75397244 C43.9929139,0.791622047 43.2148013,0.0118464567 42.2545033,0.0118464567 L23.838245,0.0118464567 C22.877947,0.0118464567 22.0998344,0.791622047 22.0998344,1.75397244 L22.0998344,12.830874 C22.0998344,13.7932244 22.877947,14.573 23.838245,14.573 L40.5160927,14.573 L40.5160927,19.4941575 L23.838245,36.2129921 L19.5427483,31.9064567 C19.1786093,31.5415394 18.6691391,31.3578031 18.1589735,31.4028661 C17.6460265,31.448626 17.1796689,31.7199331 16.8857616,32.1436181 L0.311059603,56.0316496 C-0.058410596,56.5640433 -0.101986755,57.2581063 0.19794702,57.8330079 C0.497649007,58.4081417 1.09149007,58.7681811 1.73864238,58.7681811 L68.0381457,58.7681811 C68.04,58.7684134 68.0418543,58.7684134 68.0427815,58.7681811 C69.0030795,58.7681811 69.7811921,57.9884055 69.7811921,57.0260551 C69.7811921,56.6118937 69.6370199,56.2314134 69.3961921,55.9324646 L43.9929139,19.6651181 L43.9929139,1.75397244 Z M25.5766556,11.088748 L25.5766556,3.49609843 L40.5160927,3.49609843 L40.5160927,11.088748 L25.5766556,11.088748 Z M5.06456954,55.2841614 L18.5534768,35.8434291 L22.6086093,39.9090866 C22.9347351,40.2356772 23.3769868,40.4194134 23.838245,40.4194134 C24.2992715,40.4194134 24.7415232,40.2356772 25.067649,39.9090866 L42.0208609,22.9140669 L64.6939073,55.2843937 L5.06456954,55.2843937 L5.06456954,55.2841614 Z" id="Shape"></path>
            </g>
        </g>
    </g>
</svg>