<?xml version="1.0" encoding="UTF-8"?>
<svg width="25px" height="25px" viewBox="0 0 25 25" version="1.1" xmlns="http://www.w3.org/2000/svg" xmlns:xlink="http://www.w3.org/1999/xlink">
    <!-- Generator: Sketch 46.2 (44496) - http://www.bohemiancoding.com/sketch -->
    <title>Page 1</title>
    <desc>Created with Sketch.</desc>
    <defs></defs>
    <g id="Page-1" stroke="none" stroke-width="1" fill="none" fill-rule="evenodd">
        <g id="03.Noi_Bo_Bieu_Mau" transform="translate(-695.000000, -827.000000)" fill="#0081E4">
            <g id="Group-3" transform="translate(695.000000, 827.000000)">
                <path d="M21.1820084,18.8938053 C21.1820084,19 21.2343096,19.0530973 21.3389121,19.0530973 C21.4435146,19.0530973 21.4958159,19 21.4958159,18.8938053 C21.4958159,18.7876106 21.4435146,18.7345133 21.3389121,18.7345133 C21.2343096,18.7345133 21.1820084,18.7876106 21.1820084,18.8938053 Z M17.834728,22.4247788 C17.834728,22.6194702 17.9393305,22.7168142 18.1485356,22.7168142 C18.3577406,22.7168142 18.4623431,22.6106205 18.4623431,22.3982301 C18.4623431,22.221238 18.3577406,22.1327434 18.1485356,22.1327434 C17.9393305,22.1327434 17.834728,22.2300874 17.834728,22.4247788 Z M13.2845188,24.2300885 C13.2845188,24.530975 13.4414226,24.6814159 13.7552301,24.6814159 C14.0690377,24.6814159 14.2259414,24.5398244 14.2259414,24.2566372 C14.2259414,23.9380514 14.0690377,23.7787611 13.7552301,23.7787611 C13.4414226,23.7787611 13.2845188,23.9292021 13.2845188,24.2300885 Z M8.42050209,23.9911504 C8.42050209,24.1681425 8.48151967,24.3185835 8.60355816,24.4424779 C8.72559331,24.5663723 8.86506109,24.6283186 9.0219682,24.6283186 C9.17887197,24.6283186 9.31833975,24.5663723 9.44037824,24.4424779 C9.56241339,24.3185835 9.62343096,24.1681425 9.62343096,23.9911504 C9.62343096,23.8141584 9.56241339,23.6637174 9.44037824,23.539823 C9.31833975,23.4159286 9.17887197,23.3539823 9.0219682,23.3539823 C8.86506109,23.3539823 8.72559331,23.4159286 8.60355816,23.539823 C8.48151967,23.6637174 8.42050209,23.8141584 8.42050209,23.9911504 Z M4.07949791,21.7610619 C4.07949791,21.9734523 4.15794812,22.1504417 4.31485523,22.2920354 C4.471759,22.4336291 4.65481172,22.5044248 4.86401674,22.5044248 C5.07322176,22.5044248 5.24755816,22.4336291 5.38702929,22.2920354 C5.52650042,22.1504417 5.59623431,21.9734523 5.59623431,21.7610619 C5.59623431,21.5486715 5.52650042,21.3628325 5.38702929,21.2035415 C5.24755816,21.0442461 5.07322176,20.9646018 4.86401674,20.9646018 C4.65481172,20.9646018 4.471759,21.0442461 4.31485523,21.2035415 C4.15794812,21.3628325 4.07949791,21.5486715 4.07949791,21.7610619 Z M1.09832636,17.9115061 C1.09832636,18.1769928 1.18549423,18.3982278 1.35983264,18.5752212 C1.53417105,18.7522147 1.75209071,18.840708 2.01359833,18.840708 C2.27510594,18.840708 2.49302561,18.7522147 2.66736402,18.5752212 C2.84170243,18.3982278 2.92887029,18.1681439 2.92887029,17.8849558 C2.92887029,17.637167 2.84170243,17.424781 2.66736402,17.2477876 C2.49302561,17.0707942 2.27510594,16.9823009 2.01359833,16.9823009 C1.75209071,16.9823009 1.53417105,17.0707942 1.35983264,17.2477876 C1.18549423,17.424781 1.09832636,17.646016 1.09832636,17.9115061 Z M0,13.185839 C0,13.4867285 0.0958846862,13.7433628 0.287656904,13.9557522 C0.479429289,14.1681416 0.723499247,14.2743363 1.01987448,14.2743363 C1.31624971,14.2743363 1.56903665,14.1681416 1.77824268,13.9557522 C1.9874487,13.7433628 2.09205021,13.4867285 2.09205021,13.185839 C2.09205021,12.8849529 1.9874487,12.6283186 1.77824268,12.4159292 C1.56903665,12.2035398 1.31624971,12.0973451 1.01987448,12.0973451 C0.723499247,12.0973451 0.479429289,12.2035398 0.287656904,12.4159292 C0.0958846862,12.6283186 0,12.8849529 0,13.185839 Z M0.889121339,8.51327264 C0.889121339,8.84955809 1.01115649,9.14159179 1.25523013,9.38938053 C1.49930377,9.63716927 1.78695799,9.76106195 2.11820084,9.76106195 C2.44944368,9.76106195 2.73709791,9.63716927 2.98117155,9.38938053 C3.22524519,9.14159179 3.34728033,8.84955809 3.34728033,8.51327264 C3.34728033,8.17699058 3.22524519,7.88495688 2.98117155,7.63716814 C2.73709791,7.3893794 2.44944368,7.26548673 2.11820084,7.26548673 C1.78695799,7.26548673 1.49930377,7.3893794 1.25523013,7.63716814 C1.01115649,7.88495688 0.889121339,8.17699058 0.889121339,8.51327264 Z M3.66108787,4.74336453 C3.66108787,5.11504595 3.80055565,5.44247561 4.07949791,5.72566372 C4.35844017,6.00885182 4.68096067,6.15044248 5.0470728,6.15044248 C5.41318159,6.15044248 5.73570209,6.00885182 6.01464435,5.72566372 C6.29358661,5.44247561 6.43305439,5.11504595 6.43305439,4.74336453 C6.43305439,4.37167972 6.29358661,4.05309904 6.01464435,3.78761232 C5.73570209,3.52212219 5.41318159,3.38938053 5.0470728,3.38938053 C4.68096067,3.38938053 4.35844017,3.52212219 4.07949791,3.78761232 C3.80055565,4.05309904 3.66108787,4.37167972 3.66108787,4.74336453 Z M7.74058577,2.59292035 C7.74058577,3.01770251 7.88876987,3.38052814 8.18514812,3.68141763 C8.48152301,3.98230372 8.83890879,4.13274336 9.25732218,4.13274336 C9.67573556,4.13274336 10.0331213,3.98230372 10.3294962,3.68141763 C10.6258745,3.38052814 10.7740586,3.01770251 10.7740586,2.59292035 C10.7740586,2.16813819 10.6258745,1.80531257 10.3294962,1.50442308 C10.0331213,1.20353699 9.67573556,1.05309735 9.25732218,1.05309735 C8.83890879,1.05309735 8.48152301,1.20353699 8.18514812,1.50442308 C7.88876987,1.80531257 7.74058577,2.16813819 7.74058577,2.59292035 Z M12.3430962,2.46017529 C12.3430962,2.9380548 12.5087163,3.33628319 12.8399565,3.65486726 C13.1712,3.97345133 13.5634577,4.13274336 14.0167364,4.13274336 C14.4700151,4.13274336 14.8622728,3.97345133 15.1935163,3.65486726 C15.5247565,3.33628319 15.6903766,2.92920581 15.6903766,2.43362832 C15.6903766,1.97345019 15.5247565,1.5840708 15.1935163,1.26548673 C14.8622728,0.946902655 14.4700151,0.787610619 14.0167364,0.787610619 C13.5634577,0.787610619 13.1712,0.946902655 12.8399565,1.26548673 C12.5087163,1.5840708 12.3430962,1.98229919 12.3430962,2.46017529 Z M16.5271967,4.37167972 C16.5271967,4.88495858 16.7015331,5.31858294 17.0502092,5.67256637 C17.3988854,6.02654981 17.8260084,6.20353982 18.3315916,6.20353982 C18.8371715,6.20353982 19.2730109,6.02654981 19.6391197,5.67256637 C20.0052318,5.31858294 20.1882845,4.88495858 20.1882845,4.37167972 C20.1882845,3.85840425 20.0052318,3.42477989 19.6391197,3.07079646 C19.2730109,2.71681303 18.8371715,2.53982301 18.3315916,2.53982301 C17.8260084,2.53982301 17.3988854,2.71681303 17.0502092,3.07079646 C16.7015331,3.42477989 16.5271967,3.85840425 16.5271967,4.37167972 Z M19.5083682,7.98229919 C19.5083682,8.53097742 19.7001372,8.99999773 20.083682,9.38938053 C20.4672268,9.77876333 20.9292151,9.97345133 21.4696669,9.97345133 C22.0101155,9.97345133 22.4721038,9.77876333 22.8556485,9.38938053 C23.2391933,8.99999773 23.4309623,8.52212503 23.4309623,7.95575221 C23.4309623,7.42477536 23.2391933,6.96460404 22.8556485,6.57522124 C22.4721038,6.18583844 22.0101155,5.99115044 21.4696669,5.99115044 C20.9292151,5.99115044 20.4672268,6.18583844 20.083682,6.57522124 C19.7001372,6.96460404 19.5083682,7.43362435 19.5083682,7.98229919 Z M20.7112971,12.6283186 C20.7112971,13.2300908 20.9117824,13.7433594 21.3127598,14.1681416 C21.7137406,14.5929238 22.2105975,14.8053097 22.8033473,14.8053097 C23.3960971,14.8053097 23.9016703,14.5929238 24.3200837,14.1681416 C24.7384971,13.7433594 24.9476987,13.2300908 24.9476987,12.6283186 C24.9476987,12.0265464 24.7384971,11.5132777 24.3200837,11.0884956 C23.9016703,10.6637134 23.3960971,10.4513274 22.8033473,10.4513274 C22.2105975,10.4513274 21.7137406,10.6637134 21.3127598,11.0884956 C20.9117824,11.5132777 20.7112971,12.0265464 20.7112971,12.6283186 Z" id="Page-1"></path>
            </g>
        </g>
    </g>
</svg>