<?xml version="1.0" encoding="UTF-8"?>
<svg width="20px" height="23px" viewBox="0 0 20 23" version="1.1" xmlns="http://www.w3.org/2000/svg" xmlns:xlink="http://www.w3.org/1999/xlink">
    <!-- Generator: Sketch 46.2 (44496) - http://www.bohemiancoding.com/sketch -->
    <title>Page 1</title>
    <desc>Created with Sketch.</desc>
    <defs></defs>
    <g id="Page-1" stroke="none" stroke-width="1" fill="none" fill-rule="evenodd">
        <g id="02.Noi_Bo_Post_Tin" transform="translate(-1141.000000, -39.000000)" fill="#C7C7C7">
            <g id="Group-5" transform="translate(0.000000, 1.000000)">
                <path d="M1158.63085,54.2288871 L1161,56.5706393 L1161,57.7142857 L1141,57.7142857 L1141,56.5706393 L1143.36915,54.2288871 L1143.36915,47.8571429 C1143.36915,46.1144331 1143.9201,44.5532813 1145.02204,43.1736385 C1146.12397,41.7939958 1147.51973,40.9045011 1149.20937,40.5051302 L1149.20937,39.7426993 C1149.20937,39.2707171 1149.38384,38.8622737 1149.73278,38.5173656 C1150.08173,38.172454 1150.49495,38 1150.97245,38 C1151.44996,38 1151.86318,38.172454 1152.21212,38.5173656 C1152.56107,38.8622737 1152.73554,39.2707171 1152.73554,39.7426993 L1152.73554,40.5051302 C1154.42517,40.9045011 1155.83012,41.7939958 1156.95041,43.1736385 C1158.07071,44.5532813 1158.63085,46.1144331 1158.63085,47.8571429 L1158.63085,54.2288871 Z M1150.97059,61 C1150.30392,61 1149.72549,60.7555296 1149.2353,60.2665816 C1148.7451,59.7776336 1148.5,59.2006835 1148.5,58.5357143 L1153.5,58.5357143 C1153.5,59.2006835 1153.2451,59.7776336 1152.73529,60.2665816 C1152.22549,60.7555296 1151.63726,61 1150.97059,61 Z" id="Page-1"></path>
            </g>
        </g>
    </g>
</svg>