<?xml version="1.0" encoding="UTF-8"?>
<svg width="26px" height="29px" viewBox="0 0 26 29" version="1.1" xmlns="http://www.w3.org/2000/svg" xmlns:xlink="http://www.w3.org/1999/xlink">
    <!-- Generator: Sketch 46.2 (44496) - http://www.bohemiancoding.com/sketch -->
    <title>pdf copy 3</title>
    <desc>Created with Sketch.</desc>
    <defs></defs>
    <g id="Page-1" stroke="none" stroke-width="1" fill="none" fill-rule="evenodd">
        <g id="02.Noi_Bo_Post_Tin" transform="translate(-1039.000000, -986.000000)" fill-rule="nonzero">
            <g id="pdf-copy-3" transform="translate(1039.000000, 986.000000)">
                <path d="M1.88600738,0 L17.6423911,0 L25.9939557,8.11167419 L25.9939557,27.1232323 C25.9939557,28.1222355 25.163203,28.931429 24.1395129,28.931429 L1.88600738,28.931429 C0.862317343,28.931429 0.0315645756,28.1222355 0.0315645756,27.1232323 L0.0315645756,1.80819677 C0.0315645756,0.809193548 0.862413284,0 1.88600738,0 Z" id="Shape" fill="#E2574C"></path>
                <path d="M25.9671882,8.13693226 L19.5034539,8.13693226 C18.4797638,8.13693226 17.6490111,7.32689677 17.6490111,6.32873548 L17.6490111,0.0180548387 L25.9671882,8.13693226 Z" id="Shape" fill="#B53629"></path>
                <path d="M19.0379483,13.7089548 C19.3486052,13.7089548 19.5006716,13.4449613 19.5006716,13.1891065 C19.5006716,12.9241774 19.3420812,12.6683226 19.0379483,12.6683226 L17.268797,12.6683226 C16.9229299,12.6683226 16.7300886,12.9476581 16.7300886,13.2559935 L16.7300886,17.4953258 C16.7300886,17.8732613 16.9507528,18.0829968 17.249321,18.0829968 C17.5460664,18.0829968 17.76769,17.8732613 17.76769,17.4953258 L17.76769,16.331771 L18.8377196,16.331771 C19.1696753,16.331771 19.3356531,16.0668419 19.3356531,15.8037839 C19.3356531,15.5461516 19.1696753,15.2902032 18.8377196,15.2902032 L17.76769,15.2902032 L17.76769,13.7089548 C17.76769,13.7089548 19.0379483,13.7089548 19.0379483,13.7089548 Z M13.0582362,12.6683226 L11.7638007,12.6683226 C11.412369,12.6683226 11.1629225,12.9034097 11.1629225,13.2523452 L11.1629225,17.4989742 C11.1629225,17.9320097 11.5217417,18.0676548 11.7785756,18.0676548 L13.1370037,18.0676548 C14.7447823,18.0676548 15.8064649,17.0360968 15.8064649,15.4439032 C15.8056015,13.7605 14.8060886,12.6683226 13.0582362,12.6683226 Z M13.1204059,17.0207548 L12.3312915,17.0207548 L12.3312915,13.7153161 L13.0425018,13.7153161 C14.1190554,13.7153161 14.5872472,14.4196419 14.5872472,15.3915161 C14.5872472,16.3010871 14.1273063,17.0207548 13.1204059,17.0207548 Z M8.37852399,12.6683226 L7.09617712,12.6683226 C6.73361624,12.6683226 6.53146863,12.9015387 6.53146863,13.2559935 L6.53146863,17.4953258 C6.53146863,17.8732613 6.76326199,18.0829968 7.07478229,18.0829968 C7.38630258,18.0829968 7.61809594,17.8732613 7.61809594,17.4953258 L7.61809594,16.2575871 L8.42198524,16.2575871 C9.4141107,16.2575871 10.2328708,15.5722516 10.2328708,14.4701581 C10.2329668,13.3916387 9.44298893,12.6683226 8.37852399,12.6683226 Z M8.35722509,15.2631677 L7.61819188,15.2631677 L7.61819188,13.663771 L8.35722509,13.663771 C8.81342435,13.663771 9.10364576,14.010929 9.10364576,14.4638903 C9.10268635,14.9160097 8.81342435,15.2631677 8.35722509,15.2631677 Z" id="Shape" fill="#FFFFFF"></path>
            </g>
        </g>
    </g>
</svg>