<?xml version="1.0" encoding="UTF-8"?>
<svg width="17px" height="17px" viewBox="0 0 17 17" version="1.1" xmlns="http://www.w3.org/2000/svg" xmlns:xlink="http://www.w3.org/1999/xlink">
    <!-- Generator: Sketch 46.2 (44496) - http://www.bohemiancoding.com/sketch -->
    <title>Page 1</title>
    <desc>Created with Sketch.</desc>
    <defs></defs>
    <g id="Page-1" stroke="none" stroke-width="1" fill="none" fill-rule="evenodd">
        <g id="03.Noi_Bo_Bieu_Mau" transform="translate(-1264.000000, -176.000000)" fill="#0081E4">
            <path d="M1276.39583,186.359375 L1276.21875,186.669271 L1281,191.494792 L1279.49479,193 L1274.71354,188.174479 L1274.40365,188.395833 C1273.22308,189.133684 1271.99827,189.502604 1270.72917,189.502604 C1268.86978,189.502604 1267.28343,188.838547 1265.97005,187.510417 C1264.65668,186.182286 1264,184.58855 1264,182.729167 C1264,180.869783 1264.65668,179.283425 1265.97005,177.970051 C1267.28343,176.656679 1268.86978,176 1270.72917,176 C1272.58855,176 1274.17491,176.656679 1275.48828,177.970051 C1276.80165,179.283425 1277.45833,180.869783 1277.45833,182.729167 C1277.45833,184.027785 1277.10417,185.237842 1276.39583,186.359375 Z M1274.49219,178.966146 C1273.4592,177.933155 1272.20487,177.416667 1270.72917,177.416667 C1269.25346,177.416667 1267.99914,177.933155 1266.96615,178.966146 C1265.93315,179.999137 1265.41667,181.253465 1265.41667,182.729167 C1265.41667,184.204869 1265.93315,185.459197 1266.96615,186.492188 C1267.99914,187.525178 1269.25346,188.041667 1270.72917,188.041667 C1272.20487,188.041667 1273.4592,187.525178 1274.49219,186.492188 C1275.55469,185.429682 1276.08594,184.175354 1276.08594,182.729167 C1276.08594,181.28298 1275.55469,180.028651 1274.49219,178.966146 Z" id="Page-1"></path>
        </g>
    </g>
</svg>