<?xml version="1.0" encoding="UTF-8"?>
<svg width="18px" height="18px" viewBox="0 0 18 18" version="1.1" xmlns="http://www.w3.org/2000/svg" xmlns:xlink="http://www.w3.org/1999/xlink">
    <!-- Generator: Sketch 46.2 (44496) - http://www.bohemiancoding.com/sketch -->
    <title>Page 1 Copy 4</title>
    <desc>Created with Sketch.</desc>
    <defs></defs>
    <g id="Page-1" stroke="none" stroke-width="1" fill="none" fill-rule="evenodd">
        <g id="06.Tuyen_Dung" transform="translate(-571.000000, -1612.000000)" fill="#0081E4">
            <path d="M580,1612 C577.514632,1612 575.393313,1612.87865 573.635983,1614.63598 C571.878652,1616.39331 571,1618.51463 571,1621 C571,1623.48537 571.878652,1625.60669 573.635983,1627.36402 C575.393313,1629.12135 577.514632,1630 580,1630 C582.485368,1630 584.606687,1629.12135 586.364017,1627.36402 C588.121347,1625.60669 589,1623.48537 589,1621 C589,1618.51463 588.121347,1616.39331 586.364017,1614.63598 C584.606687,1612.87865 582.485368,1612 580,1612 Z M585.516738,1626.51674 C583.9979,1628.03557 582.159007,1628.79498 580,1628.79498 C577.840993,1628.79498 576.0021,1628.03557 574.483262,1626.51674 C572.964428,1624.9979 572.205021,1623.15901 572.205021,1621 C572.205021,1618.84099 572.964428,1617.0021 574.483262,1615.48326 C576.0021,1613.96443 577.840993,1613.20502 580,1613.20502 C582.159007,1613.20502 583.9979,1613.96443 585.516738,1615.48326 C587.035572,1617.0021 587.794979,1618.84099 587.794979,1621 C587.794979,1623.15901 587.035572,1624.9979 585.516738,1626.51674 Z M583.577406,1620.35983 L580.564854,1620.35983 L580.564854,1616.14226 C580.564854,1615.96653 580.508369,1615.82218 580.395399,1615.70921 C580.282426,1615.59623 580.138076,1615.53975 579.962343,1615.53975 C579.78661,1615.53975 579.642261,1615.59623 579.529287,1615.70921 C579.416317,1615.82218 579.359833,1615.96653 579.359833,1616.14226 L579.359833,1620.96234 C579.359833,1621.13808 579.416317,1621.28243 579.529287,1621.3954 C579.642261,1621.50837 579.78661,1621.56485 579.962343,1621.56485 L583.577406,1621.56485 C583.753139,1621.56485 583.897488,1621.50837 584.010461,1621.3954 C584.123432,1621.28243 584.179916,1621.13808 584.179916,1620.96234 C584.179916,1620.78661 584.123432,1620.64226 584.010461,1620.52929 C583.897488,1620.41632 583.753139,1620.35983 583.577406,1620.35983 Z" id="Page-1-Copy-4"></path>
        </g>
    </g>
</svg>