<?xml version="1.0" encoding="UTF-8"?>
<svg width="24px" height="18px" viewBox="0 0 24 18" version="1.1" xmlns="http://www.w3.org/2000/svg" xmlns:xlink="http://www.w3.org/1999/xlink">
    <!-- Generator: Sketch 46.2 (44496) - http://www.bohemiancoding.com/sketch -->
    <title>Page 1</title>
    <desc>Created with Sketch.</desc>
    <defs></defs>
    <g id="Page-1" stroke="none" stroke-width="1" fill="none" fill-rule="evenodd">
        <g id="02.Noi_Bo_Post_Tin" transform="translate(-196.000000, -695.000000)" fill="#F5A623">
            <path d="M208.585936,699.710936 C208.507813,699.632813 208.417969,699.578126 208.316407,699.546875 C208.214842,699.515624 208.109377,699.5 208,699.5 C207.90625,699.5 207.808594,699.515624 207.707032,699.546875 C207.605467,699.578126 207.515626,699.632813 207.4375,699.710936 L202.984375,704.140625 C202.84375,704.296877 202.773436,704.476562 202.773436,704.679686 C202.773436,704.882813 202.84375,705.062498 202.984375,705.21875 C203.125,705.359375 203.300779,705.429686 203.511718,705.429686 C203.722657,705.429686 203.906248,705.359375 204.0625,705.21875 L207.25,702.03125 L207.25,709.25 C207.25,709.453127 207.324217,709.628906 207.472657,709.777343 C207.621094,709.925783 207.796873,710 208,710 C208.203127,710 208.378906,709.925783 208.527343,709.777343 C208.675783,709.628906 208.75,709.453127 208.75,709.25 L208.75,702.007814 L211.960936,705.21875 C212.117188,705.359375 212.300779,705.429686 212.511718,705.429686 C212.722657,705.429686 212.898436,705.359375 213.039064,705.21875 C213.179689,705.062498 213.25,704.882813 213.25,704.679686 C213.25,704.476562 213.179689,704.296877 213.039064,704.140625 L208.585936,699.710936 Z M213.296875,698.773436 C213.031249,698.210936 212.687503,697.69922 212.265625,697.238282 C211.843747,696.777341 211.375003,696.382814 210.859375,696.054686 C210.343747,695.726561 209.781253,695.46875 209.171875,695.28125 C208.562497,695.09375 207.921877,695 207.25,695 C206.359372,695 205.519534,695.160155 204.730468,695.480468 C203.941402,695.800784 203.246098,696.246092 202.644532,696.816407 C202.042966,697.386722 201.554689,698.050778 201.179686,698.808593 C200.804686,699.566411 200.585938,700.382807 200.523436,701.257814 C199.867183,701.445314 199.261723,701.722655 198.707031,702.089843 C198.152341,702.457034 197.675783,702.890624 197.277344,703.390625 C196.878904,703.890626 196.566407,704.449217 196.339844,705.066407 C196.11328,705.683597 196,706.328123 196,707 C196,707.796878 196.156248,708.546872 196.46875,709.25 C196.781252,709.953128 197.207029,710.574216 197.746094,711.113281 C198.285159,711.652346 198.917965,712.085936 199.644532,712.414062 C200.371096,712.742189 201.156247,712.929687 202,712.976562 L214.75,713 C215.390629,712.718749 216.02734,712.324221 216.660157,711.816406 C217.292971,711.308591 217.855465,710.734378 218.347657,710.09375 C218.839846,709.453121 219.238279,708.769535 219.542968,708.042968 C219.847657,707.316404 220,706.593755 220,705.875 C220,704.92187 219.828127,704.027348 219.484375,703.191407 C219.140623,702.355466 218.664067,701.621096 218.054686,700.988282 C217.445308,700.355465 216.73438,699.839846 215.921875,699.441407 C215.10937,699.042968 214.234381,698.820314 213.296875,698.773436 Z M214.75,711.5 L202,711.5 C202,711.5 201.765628,711.453126 201.296875,711.359375 C200.828122,711.265624 200.308597,711.066408 199.738282,710.761719 C199.167967,710.45703 198.652346,710.007816 198.191406,709.414064 C197.730466,708.82031 197.5,708.015629 197.5,707 C197.5,706.437497 197.621093,705.890627 197.863281,705.359375 C198.10547,704.828123 198.429686,704.35547 198.835938,703.941407 C199.24219,703.527341 199.71484,703.191407 200.253907,702.933593 C200.792971,702.675779 201.374998,702.531251 202,702.5 C202,701.718746 202.121092,700.968755 202.363282,700.25 C202.605469,699.531245 202.953124,698.894534 203.40625,698.339843 C203.859376,697.785152 204.410152,697.339844 205.058593,697.003907 C205.707034,696.667967 206.437495,696.5 207.25,696.5 C208.531255,696.5 209.593747,696.851558 210.4375,697.554686 C211.281253,698.257817 211.851562,699.156245 212.148436,700.25 C213.085942,700.218749 213.937495,700.359374 214.703125,700.671875 C215.468755,700.984376 216.128902,701.39453 216.683593,701.902343 C217.238284,702.410159 217.671874,702.984371 217.984375,703.625 C218.296876,704.265629 218.468749,704.890622 218.5,705.5 C218.531251,706.031252 218.445313,706.58984 218.242186,707.175782 C218.039062,707.761721 217.761721,708.328121 217.410157,708.875 C217.058593,709.421879 216.652345,709.92578 216.191407,710.386719 C215.730466,710.847659 215.250001,711.218748 214.75,711.5 Z" id="Page-1"></path>
        </g>
    </g>
</svg>